<?xml version="1.0"?>
<svg xmlns="http://www.w3.org/2000/svg" xmlns:xlink="http://www.w3.org/1999/xlink" xmlns:svgjs="http://svgjs.com/svgjs" version="1.1" width="512" height="512" x="0" y="0" viewBox="0 0 496.00548 496" style="enable-background:new 0 0 512 512" xml:space="preserve" class=""><g><link type="text/css" id="dark-mode" rel="stylesheet"/><style type="text/css" id="dark-mode-custom-style"/><path xmlns="http://www.w3.org/2000/svg" d="m256 190.867188c13.761719-3.578126 24-15.992188 24-30.863282 0-17.648437-14.351562-32-32-32-8.824219 0-16-7.175781-16-16 0-8.824218 7.175781-16 16-16s16 7.175782 16 16h16c0-14.875-10.238281-27.289062-24-30.863281v-17.136719h-16v17.136719c-13.757812 3.574219-24 15.988281-24 30.863281 0 17.648438 14.351562 32 32 32 8.824219 0 16 7.175782 16 16 0 8.824219-7.175781 16-16 16s-16-7.175781-16-16h-16c0 14.871094 10.242188 27.285156 24 30.863282v17.136718h16zm0 0" fill="#37869e" data-original="#000000" style="" class=""/><path xmlns="http://www.w3.org/2000/svg" d="m368 336.003906h-24v-40c0-4.425781-3.582031-8-8-8h-208c-4.414062 0-8 3.574219-8 8v48c0 4.421875 3.585938 8 8 8h24v32h-24c-4.414062 0-8 3.574219-8 8v48c0 4.421875 3.585938 8 8 8h24v40c0 4.421875 3.585938 8 8 8h208c4.417969 0 8-3.578125 8-8v-48c0-4.425781-3.582031-8-8-8h-24v-32h24c4.417969 0 8-3.578125 8-8v-48c0-4.425781-3.582031-8-8-8zm-232-32h192v32h-192zm224 176h-192v-32h192zm-32-48h-192v-32h192zm32-48h-192v-32h192zm0 0" fill="#37869e" data-original="#000000" style="" class=""/><path xmlns="http://www.w3.org/2000/svg" d="m248 32.003906c-57.34375 0-104 46.65625-104 104h16c0-48.519531 39.480469-88 88-88zm0 0" fill="#37869e" data-original="#000000" style="" class=""/><path xmlns="http://www.w3.org/2000/svg" d="m248 224.003906v16c57.34375 0 104-46.65625 104-104h-16c0 48.519532-39.480469 88-88 88zm0 0" fill="#37869e" data-original="#000000" style="" class=""/><path xmlns="http://www.w3.org/2000/svg" d="m248 .00390625c-74.992188 0-136 61.00781275-136 135.99999975 0 74.992188 61.007812 136 136 136s136-61.007812 136-136c0-74.992187-61.007812-135.99999975-136-135.99999975zm0 255.99999975c-66.167969 0-120-53.832031-120-120 0-66.167968 53.832031-120 120-120s120 53.832032 120 120c0 66.167969-53.832031 120-120 120zm0 0" fill="#37869e" data-original="#000000" style="" class=""/><path xmlns="http://www.w3.org/2000/svg" d="m408 208.003906h8v40h16v-48c0-4.074218-3.039062-7.433594-6.976562-7.9375l22.976562-27.566406 22.976562 27.558594c-3.9375.511718-6.976562 3.871094-6.976562 7.945312v48h16v-40h8c3.105469 0 5.929688-1.800781 7.25-4.609375 1.320312-2.808593.886719-6.128906-1.105469-8.511719l-40-48c-3.039062-3.640624-9.246093-3.640624-12.289062 0l-40 48c-1.992188 2.390626-2.414063 5.710938-1.101563 8.511719 1.320313 2.808594 4.144532 4.609375 7.246094 4.609375zm0 0" fill="#37869e" data-original="#000000" style="" class=""/><path xmlns="http://www.w3.org/2000/svg" d="m416 264.003906h16v16h-16zm0 0" fill="#37869e" data-original="#000000" style="" class=""/><path xmlns="http://www.w3.org/2000/svg" d="m416 296.003906h16v16h-16zm0 0" fill="#37869e" data-original="#000000" style="" class=""/><path xmlns="http://www.w3.org/2000/svg" d="m464 264.003906h16v16h-16zm0 0" fill="#37869e" data-original="#000000" style="" class=""/><path xmlns="http://www.w3.org/2000/svg" d="m464 296.003906h16v16h-16zm0 0" fill="#37869e" data-original="#000000" style="" class=""/><path xmlns="http://www.w3.org/2000/svg" d="m454.144531 330.875c-3.039062-3.640625-9.246093-3.640625-12.289062 0l-40 48c-1.992188 2.390625-2.414063 5.710938-1.101563 8.511719 1.320313 2.816406 4.144532 4.617187 7.246094 4.617187h8v40h16v-48c0-4.074218-3.039062-7.433594-6.976562-7.9375l22.976562-27.566406 22.976562 27.558594c-3.9375.511718-6.976562 3.871094-6.976562 7.945312v48h16v-40h8c3.105469 0 5.929688-1.800781 7.25-4.609375 1.320312-2.808593.886719-6.128906-1.105469-8.511719zm0 0" fill="#37869e" data-original="#000000" style="" class=""/><path xmlns="http://www.w3.org/2000/svg" d="m416 448.003906h16v16h-16zm0 0" fill="#37869e" data-original="#000000" style="" class=""/><path xmlns="http://www.w3.org/2000/svg" d="m416 480.003906h16v16h-16zm0 0" fill="#37869e" data-original="#000000" style="" class=""/><path xmlns="http://www.w3.org/2000/svg" d="m464 448.003906h16v16h-16zm0 0" fill="#37869e" data-original="#000000" style="" class=""/><path xmlns="http://www.w3.org/2000/svg" d="m464 480.003906h16v16h-16zm0 0" fill="#37869e" data-original="#000000" style="" class=""/><path xmlns="http://www.w3.org/2000/svg" d="m54.144531 146.875c-3.039062-3.640625-9.246093-3.640625-12.289062 0l-40 48c-1.992188 2.390625-2.414063 5.710938-1.101563 8.511719 1.320313 2.816406 4.144532 4.617187 7.246094 4.617187h8v40h16v-48c0-4.074218-3.039062-7.433594-6.976562-7.9375l22.976562-27.566406 22.976562 27.558594c-3.9375.511718-6.976562 3.871094-6.976562 7.945312v48h16v-40h8c3.105469 0 5.929688-1.800781 7.25-4.609375 1.320312-2.808593.886719-6.128906-1.105469-8.511719zm0 0" fill="#37869e" data-original="#000000" style="" class=""/><path xmlns="http://www.w3.org/2000/svg" d="m16 264.003906h16v16h-16zm0 0" fill="#37869e" data-original="#000000" style="" class=""/><path xmlns="http://www.w3.org/2000/svg" d="m16 296.003906h16v16h-16zm0 0" fill="#37869e" data-original="#000000" style="" class=""/><path xmlns="http://www.w3.org/2000/svg" d="m64 264.003906h16v16h-16zm0 0" fill="#37869e" data-original="#000000" style="" class=""/><path xmlns="http://www.w3.org/2000/svg" d="m64 296.003906h16v16h-16zm0 0" fill="#37869e" data-original="#000000" style="" class=""/><path xmlns="http://www.w3.org/2000/svg" d="m54.144531 330.875c-3.039062-3.640625-9.246093-3.640625-12.289062 0l-40 48c-1.992188 2.390625-2.414063 5.710938-1.101563 8.511719 1.320313 2.816406 4.144532 4.617187 7.246094 4.617187h8v40h16v-48c0-4.074218-3.039062-7.433594-6.976562-7.9375l22.976562-27.566406 22.976562 27.558594c-3.9375.511718-6.976562 3.871094-6.976562 7.945312v48h16v-40h8c3.105469 0 5.929688-1.800781 7.25-4.609375 1.320312-2.808593.886719-6.128906-1.105469-8.511719zm0 0" fill="#37869e" data-original="#000000" style="" class=""/><path xmlns="http://www.w3.org/2000/svg" d="m16 448.003906h16v16h-16zm0 0" fill="#37869e" data-original="#000000" style="" class=""/><path xmlns="http://www.w3.org/2000/svg" d="m16 480.003906h16v16h-16zm0 0" fill="#37869e" data-original="#000000" style="" class=""/><path xmlns="http://www.w3.org/2000/svg" d="m64 448.003906h16v16h-16zm0 0" fill="#37869e" data-original="#000000" style="" class=""/><path xmlns="http://www.w3.org/2000/svg" d="m64 480.003906h16v16h-16zm0 0" fill="#37869e" data-original="#000000" style="" class=""/></g></svg>
