<?xml version="1.0"?>
<svg xmlns="http://www.w3.org/2000/svg" xmlns:xlink="http://www.w3.org/1999/xlink" xmlns:svgjs="http://svgjs.com/svgjs" version="1.1" width="512" height="512" x="0" y="0" viewBox="0 0 64 64" style="enable-background:new 0 0 512 512" xml:space="preserve" class=""><g><link type="text/css" id="dark-mode" rel="stylesheet"/><style type="text/css" id="dark-mode-custom-style"/><g xmlns="http://www.w3.org/2000/svg" id="Luggage"><path d="M29,20H22V8a3,3,0,0,0,0-6H12a3,3,0,0,0,0,6V20H5a3,3,0,0,0-3,3V55a3,3,0,0,0,2,2.816V59a3,3,0,0,0,6,0V58H24v1a3,3,0,0,0,6,0V57.816A3,3,0,0,0,32,55V23A3,3,0,0,0,29,20ZM11,5a1,1,0,0,1,1-1H22a1,1,0,0,1,0,2H12A1,1,0,0,1,11,5Zm3,3h6V20H14ZM8,59a1,1,0,0,1-2,0V58H8Zm19,1a1,1,0,0,1-1-1V58h2v1A1,1,0,0,1,27,60Zm3-5a1,1,0,0,1-1,1H5a1,1,0,0,1-1-1V23a1,1,0,0,1,1-1H29a1,1,0,0,1,1,1Z" fill="#37869e" data-original="#000000" style="" class=""/><path d="M61,32H50.414l7.364-7.364A10.927,10.927,0,0,0,61,16.858V8a1,1,0,0,0-.615-.923l-12-5a1.007,1.007,0,0,0-.77,0l-12,5A1,1,0,0,0,35,8v8.858a10.927,10.927,0,0,0,3.222,7.778L45.586,32H35a1,1,0,0,0-1,1v6a2.985,2.985,0,0,0,1,2.22V59a3,3,0,0,0,3,3H58a3,3,0,0,0,3-3V41.22A2.985,2.985,0,0,0,62,39V33A1,1,0,0,0,61,32ZM37,16.858V8.667L48,4.083,59,8.667v8.191a8.941,8.941,0,0,1-2.636,6.364L48,31.586l-8.364-8.364A8.941,8.941,0,0,1,37,16.858ZM60,39a1,1,0,0,1-1,1H56V34h4ZM45,46v2H41V46Zm-3,4h2v1a1,1,0,0,1-2,0Zm0-6V34h2V44Zm4-10h4v6H46Zm9,12v2H51V46Zm-3,4h2v1a1,1,0,0,1-2,0Zm0-6V34h2V44ZM36,34h4v6H37a1,1,0,0,1-1-1ZM58,60H38a1,1,0,0,1-1-1V58H59v1A1,1,0,0,1,58,60Zm1-4H37V42h3v2a1,1,0,0,0-1,1v4a1,1,0,0,0,1,1v1a3,3,0,0,0,6,0V50a1,1,0,0,0,1-1V45a1,1,0,0,0-1-1V42h4v2a1,1,0,0,0-1,1v4a1,1,0,0,0,1,1v1a3,3,0,0,0,6,0V50a1,1,0,0,0,1-1V45a1,1,0,0,0-1-1V42h3Z" fill="#37869e" data-original="#000000" style="" class=""/><rect x="8" y="26" width="18" height="2" fill="#37869e" data-original="#000000" style="" class=""/><rect x="8" y="32" width="2" height="20" fill="#37869e" data-original="#000000" style="" class=""/><rect x="16" y="32" width="2" height="20" fill="#37869e" data-original="#000000" style="" class=""/><rect x="24" y="32" width="2" height="20" fill="#37869e" data-original="#000000" style="" class=""/><path d="M48.707,19.707l5.657-5.657L52.95,12.636,48,17.586l-2.122-2.122-1.414,1.414,2.829,2.829a1,1,0,0,0,1.414,0Z" fill="#37869e" data-original="#000000" style="" class=""/><path d="M48.707,29.464l6.951-6.949A7.954,7.954,0,0,0,58,16.858V10a1,1,0,0,0-.615-.923l-9-3.75a1.007,1.007,0,0,0-.77,0l-9,3.75A1,1,0,0,0,38,10v6.858a7.954,7.954,0,0,0,2.342,5.657h0l6.95,6.949a1,1,0,0,0,1.414,0ZM41.757,21.1A5.966,5.966,0,0,1,40,16.858V10.667l8-3.334,8,3.334v6.191A5.965,5.965,0,0,1,54.243,21.1L48,27.343Z" fill="#37869e" data-original="#000000" style="" class=""/></g></g></svg>
